<svg width="24" height="24" viewBox="0 0 24 24" fill="none" xmlns="http://www.w3.org/2000/svg">
<path d="M24 0H0V24H24V0Z" fill="white"/>
<path d="M19.9285 0.757812V19.8712H0.712646V23.1831H23.2581V0.757812H19.9285Z" fill="#006652"/>
<path d="M1.03423 14.5614L10.0633 15.2405L3.28036 10.1718L11.1023 13.0851L3.76521 3.74982L13.1505 10.9739L10.3849 3.42995L15.075 9.93559L14.7535 0.954655L17.6823 9.85685L19.8889 0.875918L19.9285 0.856234V0.757812H0.712646V19.8712H0.836332L9.97919 17.8339L1.03423 14.5614Z" fill="#FFD74F"/>
<path d="M19.9286 0.856323L19.889 0.876007L17.6824 9.85694L14.7536 0.954744L15.0751 9.93568L10.385 3.43004L13.1506 10.974L3.76531 3.74991L11.1024 13.0852L3.28046 10.1719L10.0634 15.2406L1.03432 14.5615L9.97928 17.834L0.836426 19.8713H19.9286V0.856323Z" fill="white"/>
</svg>
